<svg width="15" height="23" fill="none" xmlns="http://www.w3.org/2000/svg"><g clip-path="url(#a)"><rect x="4" width="7" height="16" rx="3" fill="#A8A8A8"/><path fill="#A8A8A8" d="M7 18h2v5H7z"/><mask id="b" fill="#fff"><path fill-rule="evenodd" clip-rule="evenodd" d="M15 11.07v1.938A6.99 6.99 0 0 1 8.005 20h-1.01A6.995 6.995 0 0 1 0 13.009v-1.966"/></mask><path d="M13 11.07v1.938h4v-1.937h-4Zm0 1.938A4.99 4.99 0 0 1 8.005 18v4A8.99 8.99 0 0 0 17 13.008h-4ZM8.005 18h-1.01v4h1.01v-4Zm-1.01 0A4.995 4.995 0 0 1 2 13.009h-4C-2 17.973 2.028 22 6.995 22v-4ZM2 13.009v-1.966h-4v1.966h4Z" fill="#A8A8A8" mask="url(#b)"/></g><defs><clipPath id="a"><path fill="#fff" d="M0 0h15v23H0z"/></clipPath></defs></svg>